<?xml version="1.0" encoding="UTF-8" standalone="no"?>
<svg
   xmlns:dc="http://purl.org/dc/elements/1.1/"
   xmlns:cc="http://creativecommons.org/ns#"
   xmlns:rdf="http://www.w3.org/1999/02/22-rdf-syntax-ns#"
   xmlns:svg="http://www.w3.org/2000/svg"
   xmlns="http://www.w3.org/2000/svg"
   xmlns:sodipodi="http://sodipodi.sourceforge.net/DTD/sodipodi-0.dtd"
   xmlns:inkscape="http://www.inkscape.org/namespaces/inkscape"
   fill="#000000"
   viewBox="0 0 23 20"
   width="23"
   height="20"
   version="1.1"
   id="svg4"
   sodipodi:docname="folder.svg"
   inkscape:version="1.0.1 (3bc2e813f5, 2020-09-07)">
  <metadata
     id="metadata10">
    <rdf:RDF>
      <cc:Work
         rdf:about="">
        <dc:format>image/svg+xml</dc:format>
        <dc:type
           rdf:resource="http://purl.org/dc/dcmitype/StillImage" />
        <dc:title></dc:title>
      </cc:Work>
    </rdf:RDF>
  </metadata>
  <defs
     id="defs8" />
  <sodipodi:namedview
     pagecolor="#ffffff"
     bordercolor="#666666"
     borderopacity="1"
     objecttolerance="10"
     gridtolerance="10"
     guidetolerance="10"
     inkscape:pageopacity="0"
     inkscape:pageshadow="2"
     inkscape:window-width="1600"
     inkscape:window-height="837"
     id="namedview6"
     showgrid="false"
     inkscape:zoom="13.958333"
     inkscape:cx="24"
     inkscape:cy="21.134328"
     inkscape:window-x="-8"
     inkscape:window-y="-8"
     inkscape:window-maximized="1"
     inkscape:current-layer="svg4" />
  <path
     d="M 3.75,2 C 2.5162496,2 1.5,3.0162495 1.5,4.25 v 11.5 C 1.5,16.98375 2.5162496,18 3.75,18 h 15.5 c 1.23375,0 2.25,-1.01625 2.25,-2.25 v -9 C 21.5,5.5162495 20.48375,4.5 19.25,4.5 H 11.521484 L 9.286133,2.6376953 C 8.7920275,2.2260553 8.169581,2 7.526367,2 Z m 0,1.5 h 3.776367 c 0.2927865,0 0.5749105,0.102679 0.799805,0.290039 L 10.078125,5.25 8.326172,6.709961 C 8.1012775,6.897321 7.8191535,7 7.526367,7 H 3 V 4.25 C 3,3.8267505 3.3267504,3.5 3.75,3.5 Z M 11.521484,6 H 19.25 C 19.67325,6 20,6.3267505 20,6.75 v 9 c 0,0.42325 -0.32675,0.75 -0.75,0.75 H 3.75 C 3.3267504,16.5 3,16.17325 3,15.75 V 8.5 h 4.526367 c 0.643214,0 1.2656605,-0.2260555 1.759766,-0.6376955 z"
     id="path2"
     style="stroke-width:0.5" />
</svg>
