<?xml version="1.0" encoding="UTF-8" standalone="no"?>
<!-- Generator: Adobe Illustrator 16.0.0, SVG Export Plug-In . SVG Version: 6.00 Build 0)  -->

<svg
   version="1.1"
   id="Capa_1"
   x="0px"
   y="0px"
   width="511.62701"
   height="511.62701"
   viewBox="0 0 511.627 511.627"
   xml:space="preserve"
   sodipodi:docname="sort1.svg"
   inkscape:version="1.1.1 (3bf5ae0d25, 2021-09-20)"
   xmlns:inkscape="http://www.inkscape.org/namespaces/inkscape"
   xmlns:sodipodi="http://sodipodi.sourceforge.net/DTD/sodipodi-0.dtd"
   xmlns="http://www.w3.org/2000/svg"
   xmlns:svg="http://www.w3.org/2000/svg"><defs
   id="defs105">
	

		
		
		
		
		
	</defs><sodipodi:namedview
   id="namedview103"
   pagecolor="#ffffff"
   bordercolor="#666666"
   borderopacity="1.0"
   inkscape:pageshadow="2"
   inkscape:pageopacity="0.0"
   inkscape:pagecheckerboard="0"
   showgrid="false"
   inkscape:zoom="0.79061502"
   inkscape:cx="-13.913219"
   inkscape:cy="232.09779"
   inkscape:window-width="1920"
   inkscape:window-height="1017"
   inkscape:window-x="-8"
   inkscape:window-y="-8"
   inkscape:window-maximized="1"
   inkscape:current-layer="Capa_1"
   inkscape:snap-global="true" />
<g
   id="g362"
   transform="rotate(180,275.21096,255.811)"
   style="fill:#1a1a1a"><path
     d="M 302.54,401.991 H 247.723 V 9.136 c 0,-2.663 -0.854,-4.856 -2.568,-6.567 C 243.441,0.859 241.254,0 238.587,0 h -54.818 c -2.663,0 -4.856,0.855 -6.567,2.568 -1.709,1.715 -2.568,3.905 -2.568,6.567 V 401.99 h -54.818 c -4.184,0 -7.04,1.902 -8.564,5.708 -1.525,3.621 -0.855,6.95 1.997,9.996 l 91.361,91.365 c 2.094,1.707 4.281,2.562 6.567,2.562 2.474,0 4.665,-0.855 6.567,-2.562 l 91.076,-91.078 c 1.906,-2.279 2.856,-4.571 2.856,-6.844 0,-2.676 -0.859,-4.859 -2.568,-6.584 -1.713,-1.706 -3.9,-2.562 -6.568,-2.562 z"
     id="path62"
     style="fill:#1a1a1a" /><path
     d="m 469.629,109.63101 h -54.817 v 392.855 c 0,2.663 -0.854,4.856 -2.568,6.567 -1.714,1.71 -3.901,2.569 -6.568,2.569 h -54.818 c -2.663,0 -4.856,-0.855 -6.567,-2.568 -1.709,-1.715 -2.568,-3.905 -2.568,-6.567 V 109.63202 h -54.818 c -4.184,0 -7.04,-1.902 -8.564,-5.70801 -1.525,-3.62099 -0.855,-6.949995 1.997,-9.995995 l 91.361,-91.365 c 2.094,-1.707 4.281,-2.56201 6.567,-2.56201 2.474,0 4.665,0.85501 6.567,2.56201 l 91.076,91.078 c 1.906,2.279 2.856,4.571 2.856,6.844005 0,2.676 -0.859,4.859 -2.568,6.584 -1.713,1.706 -3.9,2.562 -6.568,2.56199 z"
     id="path62-3"
     style="fill:#1a1a1a" /></g>
<g
   id="g72">
</g>
<g
   id="g74">
</g>
<g
   id="g76">
</g>
<g
   id="g78">
</g>
<g
   id="g80">
</g>
<g
   id="g82">
</g>
<g
   id="g84">
</g>
<g
   id="g86">
</g>
<g
   id="g88">
</g>
<g
   id="g90">
</g>
<g
   id="g92">
</g>
<g
   id="g94">
</g>
<g
   id="g96">
</g>
<g
   id="g98">
</g>
<g
   id="g100">
</g>
</svg>
