<?xml version="1.0" encoding="UTF-8" standalone="no"?>
<!-- Generator: Adobe Illustrator 16.0.0, SVG Export Plug-In . SVG Version: 6.00 Build 0)  -->

<svg
   version="1.1"
   id="Capa_1"
   x="0px"
   y="0px"
   width="511.627px"
   height="511.627px"
   viewBox="0 0 511.627 511.627"
   style="enable-background:new 0 0 511.627 511.627;"
   xml:space="preserve"
   sodipodi:docname="sort.svg"
   inkscape:version="1.1.1 (3bf5ae0d25, 2021-09-20)"
   xmlns:inkscape="http://www.inkscape.org/namespaces/inkscape"
   xmlns:sodipodi="http://sodipodi.sourceforge.net/DTD/sodipodi-0.dtd"
   xmlns="http://www.w3.org/2000/svg"
   xmlns:svg="http://www.w3.org/2000/svg"><defs
   id="defs105">
	

		
		
		
		
		
	</defs><sodipodi:namedview
   id="namedview103"
   pagecolor="#ffffff"
   bordercolor="#666666"
   borderopacity="1.0"
   inkscape:pageshadow="2"
   inkscape:pageopacity="0.0"
   inkscape:pagecheckerboard="0"
   showgrid="false"
   inkscape:zoom="0.79061502"
   inkscape:cx="412.96964"
   inkscape:cy="232.09779"
   inkscape:window-width="1920"
   inkscape:window-height="1017"
   inkscape:window-x="-8"
   inkscape:window-y="-8"
   inkscape:window-maximized="1"
   inkscape:current-layer="Capa_1" />
<g
   id="g203"><path
     d="m 257.17419,219.271 h 81.42279 c 1.69713,0 3.09061,-0.855 4.17789,-2.57 1.09175,-1.713 1.63793,-3.9 1.63793,-6.567 v -54.816 c 0,-2.667 -0.54618,-4.854 -1.63793,-6.567 -1.08728,-1.711 -2.48076,-2.57 -4.17789,-2.57 h -81.42279 c -1.69713,0 -3.08934,0.855 -4.18044,2.57 -1.08856,1.713 -1.63475,3.9 -1.63475,6.567 v 54.816 c 0,2.667 0.54428,4.854 1.63475,6.567 1.0911,1.712 2.48331,2.57 4.18044,2.57 z"
     id="path58"
     style="stroke-width:0.797862" /><path
     d="m 255.46278,73.089 h 32.80942 c 1.19678,0 2.1799,-0.855 2.94618,-2.568 0.77123,-1.714 1.15056,-3.901 1.15056,-6.567 V 9.136 c 0,-2.663 -0.37978,-4.853 -1.15056,-6.567 C 290.4521,0.859 289.46898,0 288.2722,0 h -32.80942 c -1.19678,0 -2.17855,0.855 -2.94798,2.568 -0.76719,1.715 -1.1528,3.905 -1.1528,6.567 v 54.818 c 0,2.666 0.38382,4.853 1.1528,6.567 0.76988,1.71 1.7512,2.569 2.94798,2.569 z"
     id="path60"
     style="stroke-width:0.670007" /><path
     d="M 196.54,401.991 H 141.723 V 9.136 c 0,-2.663 -0.854,-4.856 -2.568,-6.567 C 137.441,0.859 135.254,0 132.587,0 H 77.769 C 75.106,0 72.913,0.855 71.202,2.568 69.493,4.283 68.634,6.473 68.634,9.135 V 401.99 H 13.816 c -4.184,0 -7.04,1.902 -8.564,5.708 -1.525,3.621 -0.855,6.95 1.997,9.996 l 91.361,91.365 c 2.094,1.707 4.281,2.562 6.567,2.562 2.474,0 4.665,-0.855 6.567,-2.562 l 91.076,-91.078 c 1.906,-2.279 2.856,-4.571 2.856,-6.844 0,-2.676 -0.859,-4.859 -2.568,-6.584 -1.713,-1.706 -3.9,-2.562 -6.568,-2.562 z"
     id="path62" /><path
     d="m 504.604,441.109 c -1.715,-1.718 -3.901,-2.573 -6.567,-2.573 h -237.54 c -2.666,0 -4.853,0.855 -6.567,2.573 -1.709,1.711 -2.568,3.901 -2.568,6.564 v 54.815 c 0,2.673 0.855,4.853 2.568,6.571 1.715,1.711 3.901,2.566 6.567,2.566 h 237.539 c 2.666,0 4.853,-0.855 6.567,-2.566 1.711,-1.719 2.566,-3.898 2.566,-6.571 v -54.815 c 0.004,-2.662 -0.855,-4.853 -2.565,-6.564 z"
     id="path64" /><path
     d="m 259.49248,365.445 h 162.69265 c 2.37105,0 4.32094,-0.855 5.84969,-2.566 1.52075,-1.711 2.282,-3.901 2.282,-6.563 v -54.823 c 0,-2.662 -0.76125,-4.853 -2.282,-6.563 -1.52964,-1.711 -3.47864,-2.566 -5.84969,-2.566 H 259.49248 c -2.37371,0 -4.32095,0.855 -5.84703,2.566 -1.52252,1.711 -2.28645,3.901 -2.28645,6.563 v 54.823 c 0,2.662 0.76127,4.853 2.28645,6.563 1.52608,1.711 3.47332,2.566 5.84703,2.566 z"
     id="path66"
     style="stroke-width:0.94359" /></g>
<g
   id="g72">
</g>
<g
   id="g74">
</g>
<g
   id="g76">
</g>
<g
   id="g78">
</g>
<g
   id="g80">
</g>
<g
   id="g82">
</g>
<g
   id="g84">
</g>
<g
   id="g86">
</g>
<g
   id="g88">
</g>
<g
   id="g90">
</g>
<g
   id="g92">
</g>
<g
   id="g94">
</g>
<g
   id="g96">
</g>
<g
   id="g98">
</g>
<g
   id="g100">
</g>
</svg>
